<svg id="Layer_1" xmlns="http://www.w3.org/2000/svg" viewBox="0 0 1710.236 266.734"><style>.st0{fill:#999999;}</style><path class="st0" d="M637.63 194.93c0 11.14-2.1 21.12-6.37 30.04-4.24 8.95-10.32 16.42-18.22 22.5-7.9 6.14-17.56 10.87-28.93 14.24-11.34 3.35-24.04 5.04-38.13 5.04-30.52 0-54.2-6.85-71.04-20.57-16.86-13.67-25.46-33.33-25.9-58.93h48.55c1.56 27.82 18.3 41.73 50.27 41.73 12.7 0 22.8-2.62 30.13-7.84 7.4-5.2 11.07-12.38 11.07-21.52 0-3.55-.57-6.6-1.68-9.16-1.12-2.55-3.17-4.9-6.18-7.03-3.06-2.1-7.18-4.1-12.4-6-5.25-1.92-12-3.97-20.28-6.2l-20.42-5.65c-14.76-4-26.15-7.73-34.17-11.2-8.05-3.42-14.5-7.38-19.44-11.85-11.38-10-17.1-24.04-17.1-42.07 0-10 2.02-19.13 6.05-27.36 3.98-8.23 9.73-15.32 17.2-21.2 7.44-5.9 16.5-10.4 27.08-13.54 10.57-3.1 22.35-4.67 35.27-4.67 27 0 47.83 6.14 62.53 18.35 14.72 12.23 22.5 29.86 23.4 52.78H582.7c-1.08-10.9-5.25-19.16-12.32-24.88-7.14-5.65-17-8.53-29.74-8.53-11.53 0-20.48 2.22-26.8 6.66-6.36 4.47-9.5 10.84-9.5 19.1 0 3.07.62 5.8 1.8 8.13 1.24 2.36 3.35 4.48 6.35 6.37 3.04 1.9 6.96 3.7 11.85 5.48 4.93 1.8 11.17 3.7 18.74 5.74l15.03 3.95c8 2.02 15 3.9 20.87 5.7 5.95 1.8 11.1 3.54 15.54 5.33 4.47 1.8 8.45 3.6 12.06 5.32 3.54 1.8 6.75 3.92 9.66 6.37 14.28 11.57 21.4 26.75 21.4 45.43m241.22 66.37h-48.6l-24.43-95.12-5.72-25.4-3.33-18.7c-.65-3.74-1.24-6.87-1.7-9.33-.43-2.44-.8-4.66-1.13-6.7-.36-1.95-.67-4-1.03-6.13-.33-2.12-.7-4.83-1.15-8.2-.5 3.18-.85 5.76-1.2 7.88-.34 2.12-.68 4.1-1 6.13-.34 2.03-.74 4.25-1.2 6.7-.44 2.45-.98 5.68-1.66 9.66-1.1 5.2-1.96 9.2-2.5 12.28-.58 2.96-.97 4.93-1.2 5.8-.63 3.8-1.45 7.7-2.33 11.82-.9 4.14-1.9 8.42-3 12.9l-23.8 96.42h-49.24L644.7 38.98h49.27l21.76 93.52c1.8 7.12 3.35 14.2 4.7 21.2 1.36 7 2.86 15.14 4.67 24.55.7 3.56 1.24 6.7 1.7 9.5.43 2.77.82 5.38 1.13 7.84.36 2.42.7 5.03 1.03 7.8.33 2.8.73 6.18 1.16 10.23.45-3.82.84-7.02 1.2-9.66l.98-7.9c.33-2.56.74-5.1 1.2-7.68.42-2.56.98-5.5 1.67-8.86 1.75-10 3.57-19.23 5.36-27.72 1.8-8.42 3.22-14.76 4.34-19L769 38.98h46.23l23.77 91.5 5.02 24.75 4.37 22.3c.4 2.67.9 5.28 1.34 7.74.43 2.44.9 5.05 1.32 7.83.47 2.75.9 5.75 1.36 9.02.44 3.2.86 7.05 1.32 11.52.44-4.24.9-7.9 1.34-10.87.43-3 .88-5.88 1.34-8.7.47-2.76.9-5.54 1.34-8.3.43-2.8 1-6.08 1.67-9.84.87-4.25 1.8-8.66 2.68-13.2.9-4.57 1.76-8.94 2.5-13.06.8-4.14 1.6-8 2.37-11.7.8-3.6 1.5-6.7 2.17-9.16L890.6 39h48.6l-60.32 222.34zM962.3 38.98h48.6v222.34h-48.6zm266.33 155.95c0 11.14-2.13 21.12-6.34 30.04-4.27 8.95-10.35 16.42-18.28 22.5-7.9 6.14-17.54 10.87-28.9 14.24-11.38 3.35-24.1 5.04-38.12 5.04-30.54 0-54.25-6.85-71.07-20.57-16.83-13.67-25.5-33.33-25.94-58.93h48.57c1.6 27.82 18.32 41.73 50.3 41.73 12.7 0 22.74-2.62 30.1-7.84 7.38-5.2 11.05-12.38 11.05-21.52 0-3.55-.53-6.6-1.63-9.16-1.16-2.55-3.24-4.9-6.24-7.03-2.98-2.1-7.14-4.1-12.37-6-5.3-1.92-12.03-3.97-20.3-6.2l-20.44-5.65c-14.72-4-26.12-7.73-34.17-11.2-8.05-3.42-14.5-7.38-19.44-11.85-11.4-10-17.06-24.04-17.06-42.07 0-10 1.98-19.13 6-27.36s9.77-15.32 17.23-21.2c7.46-5.9 16.5-10.4 27.08-13.54 10.6-3.1 22.37-4.67 35.3-4.67 26.96 0 47.8 6.14 62.5 18.35 14.74 12.23 22.5 29.86 23.4 52.78h-46.2c-1.1-10.9-5.2-19.16-12.37-24.88-7.1-5.65-17-8.53-29.67-8.53-11.58 0-20.52 2.22-26.87 6.66-6.33 4.47-9.5 10.84-9.5 19.1 0 3.07.6 5.8 1.83 8.13 1.23 2.36 3.34 4.48 6.36 6.37 2.97 1.9 6.95 3.7 11.85 5.48 4.9 1.8 11.14 3.7 18.72 5.74l15 3.95c8.07 2.02 15 3.9 20.94 5.7 5.88 1.8 11.07 3.54 15.5 5.33 4.47 1.8 8.5 3.6 12.04 5.32 3.58 1.8 6.82 3.92 9.72 6.37 14.26 11.57 21.38 26.75 21.38 45.43m210.64-.02c0 11.14-2.13 21.12-6.34 30.04-4.25 8.95-10.33 16.42-18.26 22.5-7.9 6.14-17.54 10.87-28.9 14.24-11.38 3.35-24.1 5.04-38.12 5.04-30.55 0-54.26-6.85-71.08-20.57-16.82-13.67-25.5-33.33-25.94-58.93h48.6c1.6 27.82 18.3 41.73 50.28 41.73 12.7 0 22.75-2.62 30.12-7.84 7.37-5.2 11.04-12.38 11.04-21.52 0-3.55-.53-6.6-1.63-9.16-1.15-2.55-3.23-4.9-6.23-7.03-2.98-2.1-7.14-4.1-12.37-6-5.3-1.92-12.02-3.97-20.28-6.2l-20.45-5.65c-14.72-4-26.13-7.73-34.17-11.2-8.04-3.42-14.5-7.38-19.43-11.85-11.38-10-17.06-24.04-17.06-42.07 0-10 1.97-19.13 5.98-27.36 4.03-8.23 9.78-15.32 17.24-21.2 7.45-5.9 16.5-10.4 27.08-13.54 10.6-3.1 22.35-4.67 35.3-4.67 26.94 0 47.78 6.14 62.5 18.35 14.72 12.23 22.5 29.86 23.4 52.78h-46.23c-1.1-10.9-5.2-19.16-12.36-24.88-7.1-5.65-17-8.53-29.67-8.53-11.58 0-20.52 2.22-26.88 6.66-6.3 4.47-9.47 10.84-9.47 19.1 0 3.07.6 5.8 1.82 8.13 1.23 2.36 3.34 4.48 6.36 6.37 2.98 1.9 6.96 3.7 11.86 5.48 4.9 1.8 11.12 3.7 18.7 5.74l15 3.95c8.07 2.02 15 3.9 20.94 5.7 5.87 1.8 11.06 3.54 15.5 5.33 4.46 1.8 8.5 3.6 12.03 5.32 3.57 1.8 6.82 3.92 9.72 6.37 14.25 11.57 21.37 26.75 21.37 45.43m-1252.05.85c0 20.82-6.84 36.88-20.5 48.17-13.64 11.27-32.92 16.9-57.8 16.9H0V39.77h99.94c11.3 0 20.7.62 28.14 1.83 7.44 1.22 14.04 3.25 19.82 6.15 9.1 4.64 16.2 11.17 21.32 19.57 5.12 8.44 7.68 17.84 7.68 28.2 0 10.22-2.62 19.25-7.84 27.07-5.2 7.86-12.7 14-22.5 18.42 2.9.9 5.22 1.67 7.02 2.32 1.76.63 3.3 1.33 4.66 2 1.32.64 2.55 1.33 3.67 1.98 1.1.7 2.33 1.56 3.67 2.67 14.44 10.4 21.66 25.65 21.66 45.8m-57.63-92.27c0-9.3-2.84-15.94-8.5-19.96-5.67-3.96-15.16-5.94-28.5-5.94H48.3v51.46h44.65c24.42 0 36.64-8.56 36.64-25.57m8.64 88.92c0-10.8-3.3-18.6-9.83-23.2-6.55-4.66-17.7-7-33.47-7H48.3v60.46h49.32c14.4 0 24.82-2.4 31.12-7.17 6.34-4.75 9.5-12.43 9.5-23.08m271.7-44.8c0 7.75-.6 15.96-1.83 24.6-1.2 8.6-2.8 16.14-4.8 22.55-5.1 16.17-13.44 29.78-25 40.83-9.3 9.07-19.7 15.58-31.13 19.43-11.46 3.88-26.15 5.8-44.15 5.8h-90.6V39.76H302c5.14 0 10.88.34 17.33 1 6.45.7 12 1.46 16.67 2.34 15.1 3.1 28.64 9.96 40.64 20.57 10.85 10 19.15 22.1 24.82 36.34 5.66 14.3 8.48 30.2 8.48 47.67m-48.96 1.66c0-22.77-5.44-39.96-16.32-51.47-10.88-11.5-26.97-17.22-48.3-17.22H260.7v139.4h37.32c6.45 0 12.15-.34 17.16-.98 5-.68 9.45-1.78 13.32-3.32s7.37-3.6 10.5-6.13c3.1-2.54 6-5.72 8.66-9.43 8.88-12.46 13.32-29.35 13.32-50.84M1477.15 47.47v56.3h29.28V74.44h28.85v29.3h29.28v28.82h-29.28v29.28h-28.85v-29.28h-29.28v132.86L1710.25 0z"/></svg>