<svg xmlns="http://www.w3.org/2000/svg" width="213.56" height="30.973" viewBox="0 0 213.56 30.973">
  <g id="PARTNERS_LOGO" data-name="PARTNERS LOGO" transform="translate(-167.354 -35.288)">
    <g id="Group_8129" data-name="Group 8129">
      <g id="Group_8126" data-name="Group 8126">
        <path id="Path_5038" data-name="Path 5038" d="M246.882,57.923a7.515,7.515,0,0,1-.795,3.489,7.205,7.205,0,0,1-2.272,2.612,11.164,11.164,0,0,1-3.609,1.653,18.051,18.051,0,0,1-4.759.584q-5.709,0-8.859-2.388a8.259,8.259,0,0,1-3.229-6.845h6.054q.293,4.846,6.27,4.846a6.74,6.74,0,0,0,3.757-.91,2.834,2.834,0,0,0,1.382-2.5,2.491,2.491,0,0,0-.211-1.065,2.061,2.061,0,0,0-.77-.816,7.034,7.034,0,0,0-1.547-.7c-.654-.224-1.5-.462-2.528-.72l-2.548-.656a35.5,35.5,0,0,1-4.262-1.3,8.719,8.719,0,0,1-2.426-1.376A5.966,5.966,0,0,1,224.4,46.95a6.728,6.728,0,0,1,.756-3.178,7.1,7.1,0,0,1,2.146-2.46,10.152,10.152,0,0,1,3.377-1.574,16.7,16.7,0,0,1,4.4-.542q5.05,0,7.8,2.131a7.724,7.724,0,0,1,2.918,6.127h-5.766a3.954,3.954,0,0,0-1.537-2.889,7.521,7.521,0,0,0-7.053-.216,2.5,2.5,0,0,0-1.186,2.218,1.93,1.93,0,0,0,.227.944,2.073,2.073,0,0,0,.791.739,8.308,8.308,0,0,0,1.479.637q.919.313,2.336.664l1.876.459c1,.235,1.869.455,2.6.663s1.383.41,1.939.618,1.054.417,1.5.618a6.824,6.824,0,0,1,3.876,6.014Z" fill="#fff"/>
        <path id="Path_5039" data-name="Path 5039" d="M276.971,65.632h-6.06l-3.049-11.045-.713-2.951-.415-2.169c-.081-.436-.155-.8-.212-1.084s-.1-.542-.141-.777-.084-.466-.129-.713-.088-.561-.143-.952c-.059.368-.1.668-.147.914s-.086.478-.127.713-.09.493-.149.777-.121.66-.206,1.122c-.137.6-.244,1.066-.313,1.422s-.121.573-.147.675c-.08.44-.182.9-.292,1.373s-.237.978-.374,1.5l-2.967,11.2h-6.145l-7.478-25.818h6.144l2.714,10.859c.225.827.419,1.65.586,2.461s.358,1.76.582,2.852c.086.413.156.777.213,1.1s.1.626.141.91.086.588.129.91.09.717.145,1.187c.055-.444.1-.816.149-1.123s.082-.621.123-.917.092-.592.149-.891.122-.637.208-1.028c.219-1.16.446-2.233.668-3.219s.4-1.714.542-2.207l3.01-10.9h5.766L272,50.438l.625,2.874.546,2.59c.053.311.112.614.169.9s.111.587.164.91.112.667.169,1.046.109.819.166,1.339c.055-.493.112-.918.168-1.263s.11-.682.167-1.008.112-.645.168-.967.124-.706.208-1.142c.108-.492.223-1,.333-1.531s.219-1.039.313-1.517.2-.929.294-1.357.19-.782.272-1.066l2.673-10.431h6.06Z" fill="#fff"/>
        <path id="Path_5040" data-name="Path 5040" d="M287.376,65.632V39.814h6.059V65.632Z" fill="#fff"/>
        <path id="Path_5041" data-name="Path 5041" d="M320.593,57.923a7.6,7.6,0,0,1-.791,3.489,7.179,7.179,0,0,1-2.276,2.612,11.153,11.153,0,0,1-3.607,1.653,18.053,18.053,0,0,1-4.753.584q-5.716,0-8.866-2.388a8.282,8.282,0,0,1-3.234-6.845h6.06q.3,4.846,6.271,4.846a6.753,6.753,0,0,0,3.758-.91,2.836,2.836,0,0,0,1.377-2.5,2.524,2.524,0,0,0-.2-1.065,2.129,2.129,0,0,0-.777-.816,6.8,6.8,0,0,0-1.543-.7c-.659-.224-1.5-.462-2.529-.72l-2.55-.656a35.853,35.853,0,0,1-4.262-1.3,8.69,8.69,0,0,1-2.424-1.376,5.956,5.956,0,0,1-2.127-4.884,6.745,6.745,0,0,1,.746-3.178,7.181,7.181,0,0,1,2.15-2.46,10.171,10.171,0,0,1,3.377-1.574,16.723,16.723,0,0,1,4.4-.542q5.043,0,7.8,2.131a7.722,7.722,0,0,1,2.92,6.127h-5.767a3.944,3.944,0,0,0-1.54-2.889,7.523,7.523,0,0,0-7.054-.216,2.5,2.5,0,0,0-1.181,2.218,1.887,1.887,0,0,0,.227.944,2.069,2.069,0,0,0,.792.739,8.07,8.07,0,0,0,1.48.637q.916.313,2.336.664l1.871.459c1.006.235,1.868.455,2.61.663s1.381.41,1.935.618,1.058.417,1.5.618a6.2,6.2,0,0,1,1.211.74A6.308,6.308,0,0,1,320.593,57.923Z" fill="#fff"/>
        <path id="Path_5042" data-name="Path 5042" d="M347.119,57.923a7.6,7.6,0,0,1-.791,3.489,7.179,7.179,0,0,1-2.276,2.612,11.153,11.153,0,0,1-3.607,1.653,18.048,18.048,0,0,1-4.753.584q-5.716,0-8.866-2.388a8.282,8.282,0,0,1-3.234-6.845h6.06q.3,4.846,6.271,4.846a6.751,6.751,0,0,0,3.758-.91,2.836,2.836,0,0,0,1.377-2.5,2.524,2.524,0,0,0-.2-1.065,2.129,2.129,0,0,0-.777-.816,6.791,6.791,0,0,0-1.542-.7c-.66-.224-1.5-.462-2.53-.72l-2.55-.656a35.853,35.853,0,0,1-4.262-1.3,8.69,8.69,0,0,1-2.424-1.376,5.956,5.956,0,0,1-2.127-4.884,6.745,6.745,0,0,1,.746-3.178,7.191,7.191,0,0,1,2.15-2.46,10.171,10.171,0,0,1,3.377-1.574,16.723,16.723,0,0,1,4.4-.542q5.043,0,7.8,2.131a7.722,7.722,0,0,1,2.92,6.127h-5.766a3.944,3.944,0,0,0-1.541-2.889,7.523,7.523,0,0,0-7.054-.216,2.5,2.5,0,0,0-1.181,2.218,1.887,1.887,0,0,0,.227.944,2.065,2.065,0,0,0,.793.739,8.026,8.026,0,0,0,1.479.637q.916.313,2.336.664l1.871.459c1.006.235,1.868.455,2.61.663s1.381.41,1.935.618,1.058.417,1.5.618a6.2,6.2,0,0,1,1.211.74A6.308,6.308,0,0,1,347.119,57.923Z" fill="#fff"/>
        <g id="Group_8125" data-name="Group 8125">
          <path id="Path_5043" data-name="Path 5043" d="M190.705,58.025a6.646,6.646,0,0,1-2.557,5.594Q185.6,65.58,180.94,65.58H167.354V39.907H179.82a24.2,24.2,0,0,1,3.508.211,9.078,9.078,0,0,1,2.473.715,6.336,6.336,0,0,1,2.658,2.272,5.877,5.877,0,0,1,.958,3.276,5.259,5.259,0,0,1-.978,3.142,6.335,6.335,0,0,1-2.8,2.141c.359.1.65.195.873.27a5.063,5.063,0,0,1,.582.233c.165.074.318.153.458.229a4.143,4.143,0,0,1,.455.311A5.991,5.991,0,0,1,190.705,58.025Zm-7.188-10.714a2.566,2.566,0,0,0-1.061-2.318,6.807,6.807,0,0,0-3.552-.69h-5.527v5.976h5.569Q183.515,50.279,183.517,47.311ZM184.6,57.636a2.993,2.993,0,0,0-1.226-2.7,7.942,7.942,0,0,0-4.175-.811h-5.818V61.15h6.152a6.921,6.921,0,0,0,3.882-.834A3.033,3.033,0,0,0,184.6,57.636Z" fill="#ec1c24"/>
          <path id="Path_5044" data-name="Path 5044" d="M218.483,52.435a18.858,18.858,0,0,1-.228,2.855,15.741,15.741,0,0,1-.6,2.618,10.943,10.943,0,0,1-3.115,4.742,10.334,10.334,0,0,1-3.885,2.255,18.658,18.658,0,0,1-5.506.675h-11.3V39.907h11.177c.639,0,1.356.036,2.159.114s1.5.168,2.08.269a11.185,11.185,0,0,1,5.069,2.392,11.374,11.374,0,0,1,3.1,4.219A14.01,14.01,0,0,1,218.483,52.435Zm-6.106.192q0-3.966-2.035-5.976t-6.026-2H199.87V60.839h4.654a18.269,18.269,0,0,0,2.14-.115,7.551,7.551,0,0,0,1.662-.386,5.038,5.038,0,0,0,1.309-.712,5.919,5.919,0,0,0,1.08-1.1A9.468,9.468,0,0,0,212.377,52.627Z" fill="#ec1c24"/>
        </g>
      </g>
      <g id="Group_8127" data-name="Group 8127">
        <path id="Path_5045" data-name="Path 5045" d="M351.843,40.8V66.109l29.071-30.821Z" fill="#ec1c24"/>
      </g>
      <g id="Group_8128" data-name="Group 8128">
        <path id="Path_5046" data-name="Path 5046" d="M362.744,47.336h-3.652v-3.4h-3.6v3.4h-3.651v3.346h3.651v3.4h3.6v-3.4h3.652Z" fill="#fff"/>
      </g>
    </g>
  </g>
</svg>
