<?xml version="1.0" encoding="utf-8"?>
<!-- Generator: Adobe Illustrator 22.1.0, SVG Export Plug-In . SVG Version: 6.00 Build 0)  -->
<svg version="1.1" id="Layer_1" xmlns="http://www.w3.org/2000/svg" xmlns:xlink="http://www.w3.org/1999/xlink" x="0px" y="0px"
	 viewBox="0 0 368 90" style="enable-background:new 0 0 368 90;" xml:space="preserve">
<style type="text/css">
	.st0{fill:#E30613;}
	.st1{fill:#FFFFFF;}
</style>
<g>
	<path d="M141.8,57c0,2.2-0.4,4.1-1.2,5.8c-0.8,1.7-2,3.2-3.5,4.4c-1.5,1.2-3.4,2.1-5.6,2.8c-2.2,0.6-4.7,1-7.4,1
		c-5.9,0-10.5-1.3-13.8-4c-3.3-2.7-4.9-6.5-5-11.4h9.4c0.3,5.4,3.6,8.1,9.8,8.1c2.5,0,4.4-0.5,5.8-1.5c1.4-1,2.1-2.4,2.1-4.2
		c0-0.7-0.1-1.3-0.3-1.8c-0.2-0.5-0.6-1-1.2-1.4c-0.6-0.4-1.4-0.8-2.4-1.2c-1-0.4-2.3-0.8-3.9-1.2l-4-1.1c-2.9-0.8-5.1-1.5-6.6-2.2
		c-1.6-0.7-2.8-1.4-3.8-2.3c-2.2-1.9-3.3-4.7-3.3-8.2c0-1.9,0.4-3.7,1.2-5.3c0.8-1.6,1.9-3,3.3-4.1c1.4-1.1,3.2-2,5.3-2.6
		c2.1-0.6,4.3-0.9,6.8-0.9c5.2,0,9.3,1.2,12.1,3.6c2.9,2.4,4.4,5.8,4.5,10.2h-9c-0.2-2.1-1-3.7-2.4-4.8c-1.4-1.1-3.3-1.7-5.8-1.7
		c-2.2,0-4,0.4-5.2,1.3c-1.2,0.9-1.8,2.1-1.8,3.7c0,0.6,0.1,1.1,0.4,1.6c0.2,0.5,0.6,0.9,1.2,1.2c0.6,0.4,1.4,0.7,2.3,1.1
		c1,0.3,2.2,0.7,3.6,1.1l2.9,0.8c1.6,0.4,2.9,0.8,4.1,1.1c1.2,0.3,2.2,0.7,3,1c0.9,0.3,1.6,0.7,2.3,1c0.7,0.3,1.3,0.8,1.9,1.2
		C140.4,50.4,141.8,53.3,141.8,57"/>
	<path d="M188.6,69.8h-9.4l-4.7-18.5l-1.1-4.9l-0.6-3.6c-0.1-0.7-0.2-1.3-0.3-1.8c-0.1-0.5-0.2-0.9-0.2-1.3
		c-0.1-0.4-0.1-0.8-0.2-1.2c-0.1-0.4-0.1-0.9-0.2-1.6c-0.1,0.6-0.2,1.1-0.2,1.5c-0.1,0.4-0.1,0.8-0.2,1.2c-0.1,0.4-0.1,0.8-0.2,1.3
		c-0.1,0.5-0.2,1.1-0.3,1.9c-0.2,1-0.4,1.8-0.5,2.4c-0.1,0.6-0.2,1-0.2,1.1c-0.1,0.7-0.3,1.5-0.5,2.3c-0.2,0.8-0.4,1.6-0.6,2.5
		l-4.6,18.7h-9.6l-11.6-43.2h9.6l4.2,18.2c0.3,1.4,0.7,2.8,0.9,4.1c0.3,1.4,0.6,2.9,0.9,4.8c0.1,0.7,0.2,1.3,0.3,1.8
		c0.1,0.5,0.2,1,0.2,1.5c0.1,0.5,0.1,1,0.2,1.5c0.1,0.5,0.1,1.2,0.2,2c0.1-0.7,0.2-1.4,0.2-1.9c0.1-0.5,0.1-1,0.2-1.5
		c0.1-0.5,0.1-1,0.2-1.5c0.1-0.5,0.2-1.1,0.3-1.7c0.3-1.9,0.7-3.7,1-5.4c0.3-1.6,0.6-2.9,0.8-3.7l4.7-18.2h9l4.6,17.8l1,4.8l0.8,4.3
		c0.1,0.5,0.2,1,0.3,1.5c0.1,0.5,0.2,1,0.3,1.5c0.1,0.5,0.2,1.1,0.3,1.8c0.1,0.6,0.2,1.4,0.3,2.2c0.1-0.8,0.2-1.5,0.3-2.1
		c0.1-0.6,0.2-1.1,0.3-1.7c0.1-0.5,0.2-1.1,0.3-1.6c0.1-0.5,0.2-1.2,0.3-1.9c0.2-0.8,0.3-1.7,0.5-2.6c0.2-0.9,0.3-1.7,0.5-2.5
		c0.2-0.8,0.3-1.6,0.5-2.3c0.2-0.7,0.3-1.3,0.4-1.8l4.2-17.4h9.4L188.6,69.8z"/>
	<rect x="204.8" y="26.7" width="9.4" height="43.2"/>
	<path d="M256.5,57c0,2.2-0.4,4.1-1.2,5.8c-0.8,1.7-2,3.2-3.5,4.4c-1.5,1.2-3.4,2.1-5.6,2.8c-2.2,0.6-4.7,1-7.4,1
		c-5.9,0-10.5-1.3-13.8-4c-3.3-2.7-4.9-6.5-5-11.4h9.4c0.3,5.4,3.6,8.1,9.8,8.1c2.5,0,4.4-0.5,5.8-1.5c1.4-1,2.1-2.4,2.1-4.2
		c0-0.7-0.1-1.3-0.3-1.8c-0.2-0.5-0.6-1-1.2-1.4c-0.6-0.4-1.4-0.8-2.4-1.2c-1-0.4-2.3-0.8-3.9-1.2l-4-1.1c-2.9-0.8-5.1-1.5-6.6-2.2
		c-1.6-0.7-2.8-1.4-3.8-2.3c-2.2-1.9-3.3-4.7-3.3-8.2c0-1.9,0.4-3.7,1.2-5.3c0.8-1.6,1.9-3,3.3-4.1c1.4-1.1,3.2-2,5.3-2.6
		c2.1-0.6,4.3-0.9,6.8-0.9c5.2,0,9.3,1.2,12.1,3.6c2.9,2.4,4.4,5.8,4.5,10.2h-9c-0.2-2.1-1-3.7-2.4-4.8c-1.4-1.1-3.3-1.7-5.8-1.7
		c-2.2,0-4,0.4-5.2,1.3c-1.2,0.9-1.8,2.1-1.8,3.7c0,0.6,0.1,1.1,0.4,1.6c0.2,0.5,0.6,0.9,1.2,1.2c0.6,0.4,1.4,0.7,2.3,1.1
		c1,0.3,2.2,0.7,3.6,1.1l2.9,0.8c1.6,0.4,2.9,0.8,4.1,1.1c1.1,0.3,2.1,0.7,3,1c0.9,0.3,1.6,0.7,2.3,1c0.7,0.3,1.3,0.8,1.9,1.2
		C255.1,50.4,256.5,53.3,256.5,57"/>
	<path d="M297.4,57c0,2.2-0.4,4.1-1.2,5.8c-0.8,1.7-2,3.2-3.5,4.4c-1.5,1.2-3.4,2.1-5.6,2.8c-2.2,0.6-4.7,1-7.4,1
		c-5.9,0-10.5-1.3-13.8-4c-3.3-2.7-4.9-6.5-5-11.4h9.4c0.3,5.4,3.6,8.1,9.8,8.1c2.5,0,4.4-0.5,5.8-1.5c1.4-1,2.1-2.4,2.1-4.2
		c0-0.7-0.1-1.3-0.3-1.8c-0.2-0.5-0.6-1-1.2-1.4c-0.6-0.4-1.4-0.8-2.4-1.2c-1-0.4-2.3-0.8-3.9-1.2l-4-1.1c-2.9-0.8-5.1-1.5-6.6-2.2
		c-1.6-0.7-2.8-1.4-3.8-2.3c-2.2-1.9-3.3-4.7-3.3-8.2c0-1.9,0.4-3.7,1.2-5.3c0.8-1.6,1.9-3,3.3-4.1c1.4-1.1,3.2-2,5.3-2.6
		c2.1-0.6,4.3-0.9,6.8-0.9c5.2,0,9.3,1.2,12.1,3.6c2.9,2.4,4.4,5.8,4.5,10.2h-9c-0.2-2.1-1-3.7-2.4-4.8c-1.4-1.1-3.3-1.7-5.8-1.7
		c-2.2,0-4,0.4-5.2,1.3c-1.2,0.9-1.8,2.1-1.8,3.7c0,0.6,0.1,1.1,0.4,1.6c0.2,0.5,0.6,0.9,1.2,1.2c0.6,0.4,1.4,0.7,2.3,1.1
		c1,0.3,2.2,0.7,3.6,1.1l2.9,0.8c1.6,0.4,2.9,0.8,4.1,1.1c1.1,0.3,2.1,0.7,3,1c0.9,0.3,1.6,0.7,2.3,1c0.7,0.3,1.3,0.8,1.9,1.2
		C296,50.4,297.4,53.3,297.4,57"/>
	<path class="st0" d="M54.3,57.1c0,4-1.3,7.2-4,9.4c-2.6,2.2-6.4,3.3-11.2,3.3H18V26.8h19.4c2.2,0,4,0.1,5.5,0.4
		c1.4,0.2,2.7,0.6,3.8,1.2c1.8,0.9,3.1,2.2,4.1,3.8c1,1.6,1.5,3.5,1.5,5.5c0,2-0.5,3.7-1.5,5.3c-1,1.5-2.5,2.7-4.4,3.6
		c0.6,0.2,1,0.3,1.4,0.5c0.3,0.1,0.6,0.3,0.9,0.4c0.3,0.1,0.5,0.3,0.7,0.4c0.2,0.1,0.4,0.3,0.7,0.5C52.9,50.2,54.3,53.2,54.3,57.1
		 M43.2,39.2c0-1.8-0.6-3.1-1.7-3.9c-1.1-0.8-2.9-1.2-5.5-1.2h-8.6v10H36C40.8,44.2,43.2,42.5,43.2,39.2 M44.8,56.5
		c0-2.1-0.6-3.6-1.9-4.5c-1.3-0.9-3.4-1.4-6.5-1.4h-9.1v11.7h9.6c2.8,0,4.8-0.5,6-1.4C44.2,60,44.8,58.5,44.8,56.5"/>
	<path class="st0" d="M97.6,47.8c0,1.5-0.1,3.1-0.4,4.8c-0.2,1.7-0.6,3.1-0.9,4.4c-1,3.1-2.6,5.8-4.8,7.9c-1.8,1.8-3.8,3-6,3.8
		c-2.2,0.8-5.1,1.1-8.6,1.1H59.2V26.8h17.4c1,0,2.1,0.1,3.4,0.2c1.3,0.1,2.3,0.3,3.2,0.5c2.9,0.6,5.6,1.9,7.9,4
		c2.1,1.9,3.7,4.3,4.8,7.1C97,41.3,97.6,44.4,97.6,47.8 M88.1,48.1c0-4.4-1.1-7.8-3.2-10c-2.1-2.2-5.2-3.3-9.4-3.3h-6.9v27.1h7.2
		c1.3,0,2.4-0.1,3.3-0.2c1-0.1,1.8-0.3,2.6-0.6c0.8-0.3,1.4-0.7,2-1.2c0.6-0.5,1.2-1.1,1.7-1.8C87.2,55.5,88.1,52.3,88.1,48.1"/>
	<polygon class="st0" points="304.8,28.3 304.8,70.6 350,19.1 	"/>
	<polygon class="st1" points="321.7,39.3 316,39.3 316,33.6 310.4,33.6 310.4,39.3 304.8,39.3 304.8,44.8 310.4,44.8 310.4,50.5 
		316,50.5 316,44.8 321.7,44.8 	"/>
</g>
</svg>
