<svg xmlns="http://www.w3.org/2000/svg" width="24.834" height="24.834" viewBox="0 0 24.834 24.834">
  <g id="Group_369" data-name="Group 369" transform="translate(-47.637 -28.957)">
    <path id="Path_241" data-name="Path 241" d="M60.054,53.791A12.417,12.417,0,1,1,72.471,41.374,12.431,12.431,0,0,1,60.054,53.791Zm0-23.593A11.175,11.175,0,1,0,71.229,41.374,11.188,11.188,0,0,0,60.054,30.2Z" fill="#ed1c24"/>
    <path id="Path_242" data-name="Path 242" d="M71.285,61.308a.62.62,0,0,1-.428-.171L66.51,57a.621.621,0,1,1,.856-.9l3.852,3.668,6.407-8.155a.621.621,0,1,1,.976.767l-6.829,8.692a.621.621,0,0,1-.443.236Z" transform="translate(-12.472 -14.967)" fill="#ed1c24"/>
  </g>
</svg>
